<?xml version="1.0" encoding="utf-8"?>
<!-- Generator: Adobe Illustrator 22.0.0, SVG Export Plug-In . SVG Version: 6.00 Build 0)  -->
<svg version="1.1" id="图层_1" xmlns="http://www.w3.org/2000/svg" xmlns:xlink="http://www.w3.org/1999/xlink" x="0px" y="0px"
	 viewBox="0 0 447.6 84.2" style="enable-background:new 0 0 447.6 84.2;" xml:space="preserve">
<g>
	<path d="M9.7,45.6c3.9-7.3,7.2-12.3,10.1-14.9c2.8-2.6,5.7-4,8.6-4c2,0,3.7,0.7,5,2.1c1.3,1.4,2.3,4.9,2.9,10.7
		c0.3,2.7,0.6,5,1,6.6c0.4,1.7,0.8,3.2,1.3,4.5s1.2,2.5,2.1,3.7c0.7,0.9,1.1,1.8,1.1,2.6s-0.4,1.6-1.2,2.3s-1.7,1.1-2.8,1.1
		c-2.1,0-3.9-1.1-5.6-3.4c-1.6-2.3-2.6-5.4-2.9-9.4c-0.4-4.9-0.8-8-1.2-9.4c-0.4-1.4-1.2-2-2.2-2c-1.4,0-4,2.7-7.9,8.1
		c-3.9,5.4-6.8,9.8-8.5,13C8.4,59.7,7.6,61.3,7,62c-0.6,0.7-1.3,1.1-2.2,1.1c-1.4,0-2.6-0.4-3.5-1.1c-0.9-0.7-1.3-1.7-1.3-3
		c0-0.6,0.3-2.6,0.9-5.9c2.4-12.6,4.3-26,5.9-40.2C7.2,9.5,7.9,7.2,9,5.9c1.1-1.3,2-2,2.9-2c1.2,0,2.3,0.5,3.2,1.4
		c0.9,1,1.4,2.3,1.4,4c0,2.6-0.3,5.6-0.9,9.1c-0.6,3.4-1.8,8.9-3.6,16.4C11,39.3,10.2,42.9,9.7,45.6z"/>
	<path d="M80.6,41.1c-0.4,5.7-1,11.2-2,16.6s-2.3,10.2-4.2,14.6c-1.8,4.4-3.8,7.3-5.9,8.9c-2.1,1.6-4.6,2.4-7.6,2.4
		c-3.1,0-6.2-0.6-9-1.8h0c-2.5-1-4.6-2.4-6.5-4.1c-1.8-1.7-2.8-3.2-2.8-4.4c0-1.1,0.3-2,0.8-2.6c0.6-0.7,1.3-1,2.2-1
		c0.8,0,1.4,0.3,1.9,1c3,3.9,7.4,5.8,13.1,5.8c2.3,0,4.6-2.4,6.7-7.3c2.2-4.9,3.5-10.7,4.1-17.5c-7.2,5.7-12.8,8.6-16.7,8.6
		c-2.5,0-4.5-1-6-3c-1.5-2-2.2-4.4-2.2-7.3c0-2.8,0.7-7,2-12.4c1.3-5.4,2.4-8.8,3.4-10.1c0.9-1.3,2.4-2,4.5-2c1.1,0,2,0.5,2.6,1.5
		c0.6,1,0.9,2,0.9,3.2c0,0.4-0.8,2.3-2.5,5.9c-2.1,4.4-3.1,8.2-3.1,11.4c0,1.6,0.2,2.9,0.7,3.7c0.5,0.9,0.9,1.3,1.4,1.3
		c1.1,0,2.5-0.3,4.1-1c1.6-0.7,3.5-1.9,5.7-3.5c2.2-1.7,3.6-2.9,4.2-3.8c0.6-0.9,1.1-2,1.5-3.4c0.4-1.4,0.7-4.4,0.9-9.1
		c0.1-2.7,0.3-4.4,0.4-5.1c0.2-0.7,0.6-1.3,1.2-1.9c0.7-0.6,1.6-0.9,2.7-0.9c1.5,0,2.6,0.3,3.3,1c0.6,0.7,1,2.2,1,4.6L80.6,41.1z"/>
	<path d="M113.5,51.9c5.3,0,8,1.6,8,4.7c0,1.9-0.8,3.6-2.3,5.1c-0.9-0.4-1.7-0.8-2.4-1.1c-1.9-1-4.5-1.5-7.7-1.5
		c-1.9,0-5,0.4-9.3,1.1c-4.3,0.7-7.3,1.8-8.9,3.2c-1.3,1.2-2.8,1.8-4.5,1.8c-1.4,0-2.5-0.3-3.5-1c-1-0.7-1.5-1.5-1.5-2.5
		c1.2-1.3,2.7-3,4.6-4.9c15.2-15.4,23-23.6,23.4-24.6c-0.9,0-2.1,0.1-3.6,0.3c-4.1,0.6-7.1,0.8-9.2,0.8c-5.8,0-8.8-1.5-8.8-4.4
		c0-2.5,1.5-3.8,4.4-3.8c0.3,0,0.5,0.1,0.8,0.2c1.7,0.7,3.6,1,5.7,1c3.7,0,8-0.4,13.1-1.2c1.4-0.2,2.5-0.4,3.3-0.4
		c1.4,0,2.5,0.3,3.4,1c0.9,0.6,1.3,1.5,1.3,2.5c0,0.8-0.9,2.3-2.6,4.5l0,0c-0.8,1.6-7.2,8.5-19.1,20.7c-0.5,0.5-0.8,0.9-0.9,1
		c0,0,0.2-0.1,0.5-0.1c0.3,0,0.7-0.1,1.1-0.2l1.4-0.3c0.5-0.1,0.9-0.2,1.4-0.3c1-0.2,1.5-0.4,1.7-0.4c4.3-0.9,7.7-1.3,9.9-1.3H113.5
		z"/>
	<path d="M133.1,45.6c3.9-7.3,7.2-12.3,10.1-14.9c2.8-2.6,5.7-4,8.6-4c2,0,3.7,0.7,5,2.1c1.3,1.4,2.3,4.9,2.9,10.7
		c0.3,2.7,0.6,5,1,6.6c0.4,1.7,0.8,3.2,1.3,4.5s1.2,2.5,2.1,3.7c0.7,0.9,1.1,1.8,1.1,2.6s-0.4,1.6-1.2,2.3s-1.7,1.1-2.8,1.1
		c-2.1,0-3.9-1.1-5.6-3.4c-1.6-2.3-2.6-5.4-2.9-9.4c-0.4-4.9-0.8-8-1.2-9.4c-0.4-1.4-1.2-2-2.2-2c-1.4,0-4,2.7-7.9,8.1
		c-3.9,5.4-6.8,9.8-8.5,13c-1.1,2.5-1.9,4.1-2.5,4.8c-0.6,0.7-1.3,1.1-2.2,1.1c-1.4,0-2.6-0.4-3.5-1.1c-0.9-0.7-1.3-1.7-1.3-3
		c0-0.6,0.3-2.6,0.9-5.9c2.4-12.6,4.3-26,5.9-40.2c0.4-3.4,1.1-5.8,2.2-7.1c1.1-1.3,2-2,2.9-2c1.2,0,2.3,0.5,3.2,1.4
		c0.9,1,1.4,2.3,1.4,4c0,2.6-0.3,5.6-0.9,9.1c-0.6,3.4-1.8,8.9-3.6,16.4C134.3,39.3,133.6,42.9,133.1,45.6z"/>
	<path d="M194.1,50c-6.2,8.1-12.1,12.2-17.9,12.2c-2.1,0-3.9-0.8-5.4-2.5c-1.5-1.7-2.3-3.8-2.3-6.4c0-6.2,2.8-12.8,8.3-19.8
		c5.5-7,11.1-10.5,16.7-10.5c2.9,0,4.7,1.4,5.6,4.3c2.7,0,4,1,4,3.1c0,1-0.3,2.8-0.8,5.3c-0.9,4.8-1.4,8.7-1.4,11.6
		c0,3,0.2,5.1,0.6,6.3c0.4,1.2,0.7,2,0.9,2.4c0.2,0.4,0.8,0.8,1.7,1.2c0.9,0.4,1.4,1.1,1.4,1.9c0,1.2-0.6,2.2-1.8,3
		c-1.2,0.8-2.5,1.2-3.8,1.2C195.7,63.3,193.7,58.9,194.1,50z M192,30.5c-2.4,0-5.4,2.6-9.2,7.9c-3.8,5.2-5.7,9.7-5.7,13.3
		c0,1.9,0.4,2.9,1.2,2.9c2.8,0,6.2-2.5,10.2-7.4c4-4.9,6.1-9.2,6.1-12.9c0-1.2-0.3-2.1-0.8-2.8C193.3,30.9,192.7,30.5,192,30.5z"/>
	<path d="M214.7,38.5L214.7,38.5c0.8-4.2,1.1-6.7,1.1-7.3c0-1.7,0.4-3.2,1.1-4.4c0.8-1.2,1.8-1.8,3.2-1.8c1.6,0,2.8,0.4,3.7,1.1
		c0.9,0.8,1.3,1.6,1.3,2.5c0,0.9-0.4,2.9-1.3,5.8l-0.2,0.8c-1.3,4.5-2.1,8.2-2.3,11.1c-0.3,2.9-0.4,5.2-0.4,6.9
		c0,1.4,0.2,3.3,0.7,5.7c0.1,0.4,0.1,0.8,0.1,1.1c0,0.5-0.5,1.3-1.5,2.2s-2.1,1.4-3.3,1.4c-3.1,0-4.6-2.3-4.6-7
		c0-4,0.6-8.8,1.7-14.6C214.3,40.8,214.5,39.6,214.7,38.5z M231.6,9.6c0,1.7-0.8,3.1-2.3,4.4c-1.5,1.3-2.8,1.9-3.9,1.9
		c-1.4,0-2.7-0.6-3.7-1.8c-1.1-1.2-1.6-2.3-1.6-3.5c0-1.7,0.5-3.1,1.6-4.1c1.1-1,2.6-1.6,4.6-1.6c1.6,0,2.8,0.5,3.8,1.4
		C231.2,7.2,231.6,8.3,231.6,9.6z"/>
	<path d="M244.7,14.3c0,1.2-0.3,3.1-1,5.7v0c-0.6,2.4-1.5,4.6-2.6,6.5v0c-1.1,2.2-2.7,3.2-4.5,3.2c-1.1,0-2-0.3-2.7-0.9
		c-0.8-0.6-1.1-1.4-1.1-2.2c0-0.5,0.2-1.2,0.6-1.9c0.4-0.8,0.8-1.3,1.2-1.7c1.9-1.7,2.8-3.9,2.8-6.5c0-0.9-0.8-2.1-2.4-3.4
		c-1.1-1-1.7-1.7-1.7-2.1l-0.2-1.8c0-0.5,0.1-1.1,0.2-1.7c0.2-0.5,0.8-1.1,1.8-1.6c1-0.5,1.9-0.8,2.7-0.8c0.9,0,2.6,1.3,4.9,3.8
		l0.4,0.5c0.8,1.2,1.2,2,1.3,2.5C244.5,12.4,244.7,13.3,244.7,14.3L244.7,14.3z"/>
	<path d="M266.3,52.9c-0.1-1.3-2.1-2.8-6-4.6c-4.8-2.3-7.9-4.3-9.2-6c-1.3-1.7-2-3.5-2-5.5c0-4.1,2.3-7.8,7-10.9
		c4.7-3.1,9-4.7,13-4.7c4,0,5.9,1.7,5.9,5.2c0,0.9-0.5,1.7-1.4,2.5c-0.9,0.7-1.7,1.1-2.3,1.1c-0.3,0-0.7-0.2-1.4-0.5
		c-0.7-0.3-1.2-0.5-1.5-0.5c-2.1,0-4.4,0.7-6.9,2.1c-2.5,1.4-3.8,3-3.8,4.9c0,0.9,0.4,1.8,1.3,2.7c0.9,0.9,2.7,1.9,5.4,3.2
		c4.1,1.9,6.7,3.7,8,5.2c1.3,1.5,1.9,3.3,1.9,5.1c0,3.4-2.3,6.3-6.9,8.6c-4.6,2.3-9.8,3.4-15.6,3.4c-4.2,0-6.4-1.5-6.4-4.6
		c0-1.1,0.4-2.1,1.3-2.9c0.9-0.8,1.9-1.2,3-1.2c0.4,0,1.1,0.2,2.1,0.5c0.9,0.4,1.8,0.5,2.6,0.5c2.2,0,4.5-0.4,6.9-1.1
		C263.9,54.8,265.5,53.9,266.3,52.9z"/>
	<path d="M312.5,27.7c2.3-13.5,3.9-21.5,4.9-23.9c1-2.5,2.7-3.7,5.2-3.7c1.9,0,2.9,1.7,2.9,5.1c0,2.3-1,7.1-2.9,14.4
		c-1,3.6-2.2,9.1-3.7,16.4c2.9-3.9,6.1-7,9.5-9.4c3.4-2.4,6.5-3.6,9.2-3.6c2.2,0,4,0.9,5.5,2.8c1.5,1.9,2.2,4.1,2.2,6.7
		c0,7.2-2.8,14-8.3,20.4c-5.5,6.4-11.4,9.5-17.7,9.5c-1.9,0-3.6-0.5-5.2-1.5s-2.5-2.3-2.7-3.9c-0.1-0.9-0.3-1.4-0.5-1.7
		c-0.3-0.3-0.5-0.6-0.8-0.9c-0.7-0.7-1-1.7-1-3c0-1.5,0.4-4.5,1.1-9.1L312.5,27.7z M316.6,52.6c1,1.6,2.1,2.5,3.3,2.5
		c2.2,0,4.6-1,7.3-3c2.7-2,5-4.9,7-8.6c2-3.7,3-6.7,3-9.2c0-2.3-0.4-3.5-1.1-3.5c-3.7,0-7.9,2.7-12.6,8.2S316.6,49,316.6,52.6z"/>
	<path d="M363.6,2.3c2.5,0,3.8,1.4,3.8,4.1c0,1.3-0.2,2.6-0.5,4.1c-0.4,1.5-1.3,5.1-2.9,10.9c-1.1,4.2-2,8.8-2.6,13.7
		s-0.9,8.8-0.9,11.6c0,3,0.2,6.5,0.7,10.6c0.1,1.1,0.2,1.8,0.2,2.1c0,1.4-0.5,2.6-1.5,3.6c-1,1-2.2,1.5-3.4,1.5
		c-1.7,0-2.8-0.8-3.5-2.4c-0.7-1.6-1-4.3-1-8.1c0-8.2,1-17.9,2.9-29.1c1.9-11.2,3.5-17.7,4.7-19.8C360.7,3.3,362.1,2.3,363.6,2.3z"
		/>
	<path d="M404.4,44c-1.6,5.5-4.6,10.1-8.9,13.9s-8.8,5.6-13.2,5.6c-3.5,0-6.3-1.3-8.6-3.8s-3.4-5.7-3.4-9.4c0-6,2.1-12,6.2-17.9
		c4.1-5.9,9.1-8.8,15-8.8c4,0,7.3,1.5,9.7,4.4c2.5,3,3.7,6.5,3.7,10.6C405,40.5,404.8,42.2,404.4,44L404.4,44z M386.1,32.9
		c-1.6,1.5-3.2,3.8-4.8,7c-1.6,3.2-2.4,6.4-2.4,9.6c0,1.9,0.4,3.6,1.1,4.8c0.7,1.3,1.7,1.9,2.8,1.9c2.9,0,5.9-1.7,9.1-5.2
		c3.1-3.4,4.7-7.3,4.7-11.6c0-2.4-0.5-4.4-1.5-6c-1-1.6-2.4-2.3-4.3-2.3C389.1,31.1,387.5,31.7,386.1,32.9L386.1,32.9z"/>
	<path d="M435.8,51c-2.6,2.9-5.6,5.3-9.1,7.2c-3.5,1.9-6.4,2.8-8.9,2.8c-2.5,0-4.4-0.7-5.8-2.2c-1.4-1.5-2.1-3.5-2.1-6
		c0-3.6,1.4-7.7,4.1-12.1c2.8-4.5,6.6-8.3,11.5-11.6c4.9-3.3,9.3-4.9,13.2-4.9c2.2,0,4,0.6,5.6,1.8c0.4,0.3,0.7,0.5,1,0.7
		c0.6,0.4,1.1,1.1,1.6,2.2c0.5,1.1,0.7,1.9,0.7,2.6c0,0.4-0.4,1.8-1.3,4.3c-0.9,2.5-1.6,4.9-1.9,7.3c-0.4,2.4-1.1,8.2-2.2,17.6
		c-1,8.2-3.2,14.2-6.9,17.9c-3.6,3.8-7.6,5.7-12,5.7c-4.6,0-9.1-1.6-13.4-4.7c-4.3-3.1-6.5-5.7-6.5-7.7c0-1.8,0.9-2.7,2.6-2.7
		c0.7,0,2.1,0.7,4.1,2c5.3,3.5,9.9,5.3,13.7,5.3c2.9,0,5.3-1.8,7.3-5.5C433.1,67.4,434.7,60.8,435.8,51z M436.7,31.5
		c-1.7,0-4,1-6.8,3.1s-5.4,4.9-7.8,8.4s-3.6,6.4-3.6,8.8c0,1.2,0.4,1.8,1.3,1.8c3,0,6-1.2,9-3.7c3-2.4,5.4-5.3,7.2-8.5
		c1.8-3.2,2.8-5.6,2.8-7.2c0-0.8-0.2-1.5-0.6-2S437.2,31.5,436.7,31.5z"/>
</g>
</svg>
